<svg xmlns="http://www.w3.org/2000/svg" xmlns:xlink="http://www.w3.org/1999/xlink" width="1024" zoomAndPan="magnify" viewBox="0 0 768 767.999994" height="1024" preserveAspectRatio="xMidYMid meet" version="1.0"><defs><clipPath id="626788dd94"><path d="M 260 255 L 509 255 L 509 537.898438 L 260 537.898438 Z M 260 255 " clip-rule="nonzero"/></clipPath><clipPath id="48705bc7a6"><path d="M 296 422 L 369 422 L 369 537.898438 L 296 537.898438 Z M 296 422 " clip-rule="nonzero"/></clipPath><clipPath id="2f957ba8cc"><path d="M 386 491 L 523 491 L 523 537.898438 L 386 537.898438 Z M 386 491 " clip-rule="nonzero"/></clipPath></defs><g clip-path="url(#626788dd94)"><path fill="#f7e3b5" d="M 504.023438 371.679688 C 504 371.636719 503.984375 371.609375 503.972656 371.582031 L 409.605469 272.503906 C 396.636719 259.71875 394.894531 255.039062 384.34375 255.039062 C 376.140625 255.039062 370.441406 260.425781 356.5 274.003906 L 265.265625 371.558594 C 262.484375 374.34375 260.726562 378.265625 260.726562 382.648438 L 260.726562 522.511719 C 260.726562 530.925781 267.160156 537.757812 275.089844 537.757812 L 494.070312 537.757812 C 502 537.757812 508.429688 530.925781 508.429688 522.511719 L 508.429688 382.648438 C 508.429688 378.332031 506.742188 374.453125 504.023438 371.679688 " fill-opacity="1" fill-rule="nonzero"/></g><path fill="#ea8342" d="M 391.109375 498.488281 C 387.652344 498.488281 384.84375 494.917969 384.84375 490.480469 L 384.84375 430.816406 C 384.84375 426.394531 387.652344 422.808594 391.109375 422.808594 L 479.800781 422.808594 C 483.261719 422.808594 486.058594 426.394531 486.058594 430.816406 L 486.058594 490.480469 C 486.058594 494.917969 483.261719 498.488281 479.800781 498.488281 L 391.109375 498.488281 " fill-opacity="1" fill-rule="nonzero"/><path fill="#e0464c" d="M 524.316406 369.175781 L 390.90625 235.601562 C 387.597656 232.292969 384.070312 230.460938 381.207031 233.324219 C 381.207031 233.324219 373.144531 239.511719 371.425781 241.242188 L 243.410156 369.417969 C 240.234375 372.597656 238.503906 376.019531 241.367188 378.875 L 249.351562 386.882812 C 252.21875 389.75 255.636719 388.019531 258.808594 384.839844 L 383.976562 259.519531 L 508.902344 384.609375 C 512.210938 387.910156 515.738281 389.75 518.601562 386.882812 L 526.601562 378.875 C 529.449219 376.019531 527.625 372.492188 524.316406 369.175781 " fill-opacity="1" fill-rule="nonzero"/><g clip-path="url(#48705bc7a6)"><path fill="#ea8342" d="M 368.925781 537.554688 L 368.925781 430.492188 C 368.925781 426.246094 365.496094 422.808594 361.253906 422.808594 L 304.109375 422.808594 C 299.878906 422.808594 296.433594 426.246094 296.433594 430.492188 L 296.433594 537.554688 L 368.925781 537.554688 " fill-opacity="1" fill-rule="nonzero"/></g><path fill="#a6d1ee" d="M 396.71875 491.292969 C 393.691406 491.292969 391.230469 488.398438 391.230469 484.8125 L 391.230469 436.484375 C 391.230469 432.914062 393.691406 430.003906 396.71875 430.003906 L 474.195312 430.003906 C 477.222656 430.003906 479.667969 432.914062 479.667969 436.484375 L 479.667969 484.8125 C 479.667969 488.398438 477.222656 491.292969 474.195312 491.292969 L 396.71875 491.292969 " fill-opacity="1" fill-rule="nonzero"/><path fill="#f8a64b" d="M 479.667969 448.804688 L 479.667969 436.484375 C 479.667969 432.914062 477.222656 430.003906 474.195312 430.003906 L 396.71875 430.003906 C 393.691406 430.003906 391.230469 432.914062 391.230469 436.484375 L 391.230469 448.804688 L 479.667969 448.804688 " fill-opacity="1" fill-rule="nonzero"/><path fill="#ea8342" d="M 407.199219 355.285156 C 407.199219 368.132812 396.796875 378.550781 383.964844 378.550781 C 371.117188 378.550781 360.714844 368.132812 360.714844 355.285156 C 360.714844 342.433594 371.117188 332.003906 383.964844 332.003906 C 396.796875 332.003906 407.199219 342.433594 407.199219 355.285156 " fill-opacity="1" fill-rule="nonzero"/><path fill="#a6d1ee" d="M 401.632812 355.285156 C 401.632812 365.050781 393.71875 372.976562 383.964844 372.976562 C 374.210938 372.976562 366.292969 365.050781 366.292969 355.285156 C 366.292969 345.503906 374.210938 337.59375 383.964844 337.59375 C 393.71875 337.59375 401.632812 345.503906 401.632812 355.285156 " fill-opacity="1" fill-rule="nonzero"/><g clip-path="url(#2f957ba8cc)"><path fill="#53c285" d="M 509.238281 510.890625 C 506.375 510.890625 503.742188 511.796875 501.578125 513.339844 C 501.769531 512.554688 501.890625 511.746094 501.890625 510.890625 C 501.890625 505.199219 497.285156 500.585938 491.597656 500.585938 C 487.976562 500.585938 484.789062 502.464844 482.964844 505.292969 C 481.125 502.464844 477.953125 500.585938 474.316406 500.585938 C 472.398438 500.585938 470.601562 501.125 469.0625 502.046875 C 467.710938 496.164062 462.457031 491.753906 456.171875 491.753906 C 449.714844 491.753906 444.339844 496.390625 443.175781 502.507812 C 441.488281 501.300781 439.433594 500.585938 437.191406 500.585938 C 434.246094 500.585938 431.597656 501.84375 429.707031 503.832031 C 427.371094 500.113281 423.25 497.648438 418.535156 497.648438 C 411.226562 497.648438 405.296875 503.574219 405.296875 510.890625 C 405.296875 511.246094 405.324219 511.609375 405.351562 511.949219 C 403.753906 511.269531 402 510.890625 400.164062 510.890625 C 392.851562 510.890625 386.921875 516.832031 386.921875 524.148438 C 386.921875 531.464844 392.851562 537.390625 400.164062 537.390625 L 509.238281 537.390625 C 516.546875 537.390625 522.464844 531.464844 522.464844 524.148438 C 522.464844 516.832031 516.546875 510.890625 509.238281 510.890625 " fill-opacity="1" fill-rule="nonzero"/></g></svg>